<?xml version="1.0" encoding="UTF-8"?> <svg xmlns="http://www.w3.org/2000/svg" width="274" height="299" viewBox="0 0 274 299" fill="none"><path d="M194.22 28.62H94.6301V175.11H194.22V28.62Z" fill="url(#paint0_linear_727_85)"></path><path d="M151.32 168.08C151.07 167.9 162.6 158.87 178.72 143.04C186.51 135.1 195.46 124.79 199.74 112.3C200.77 109.19 201.49 105.98 201.68 102.71L201.82 100.25L201.86 99.63C190.42 94.33 217.45 106.8 214.65 105.54L214.62 105.57L214.55 105.64L214.41 105.77L214.13 106.04L213.01 107.1L208.46 111.39C202.29 117.13 195.54 122.82 188.21 128.22C158.48 150.41 124.11 157.53 100.34 156.24C88.22 155.69 78.33 151.63 73.56 146.61C68.77 141.66 68.26 137.81 68.03 137.98C68.19 137.79 69.91 141.33 75.15 144.58C80.37 147.88 89.24 149.4 100.14 147.97C122.08 145.03 151.65 134.94 178.46 114.85C185.25 109.84 191.77 104.68 198.01 99.48L202.65 95.6L203.8 94.65L204.09 94.41L204.23 94.29L204.3 94.23L204.34 94.2C201.57 92.89 213.57 98.9 217.16 100.13L217.05 101.02L216.59 104.53C215.92 109.16 214.5 113.52 212.72 117.46C205.24 133.24 193.55 142.52 184.07 149.36C164.53 162.62 151.21 167.79 151.32 168.09V168.08Z" fill="#35509F"></path><path d="M137.37 122.94C136.36 122.81 168.25 117.39 172.93 92.08C175.02 79.7 172.61 64.43 164.39 50.34C160.35 43.3 155.85 36.25 149.34 30.41C146.08 27.49 136.48 17.28 132.68 14.96L132.33 14.74L132.15 14.63L132.06 14.57L132.02 14.54C129.35 16.52 155.05 -2.86 144.18 5.37L144.43 6.32002L144.93 8.24L145.93 12.09C146.65 14.66 147.06 17.3 147.61 19.93C155.96 61.98 146.79 103.38 128.51 125.58C110.02 147.95 91.4399 150.41 92.1199 151.02C91.4899 150.62 108.47 143.44 121.66 120.94C134.77 98.64 138.9 61.72 131.35 23.06C130.84 20.66 130.49 18.23 129.86 15.91L129.01 12.4L128.59 10.65L128.38 9.78001C126.4 11.41 143.18 -1.45999 140.56 0.560005L140.61 0.600014L140.72 0.670021L140.94 0.810005L141.37 1.10001C146.05 4.11001 156.31 14.84 160.11 18.57C167.71 26.04 172.72 35.14 176.8 43.96C185.15 61.58 185.57 80.33 180.97 94.02C170.84 121.87 136.25 122.44 137.36 122.94H137.37Z" fill="#35509F"></path><path d="M163.59 158.79C163.59 158.79 174.77 152.53 179.78 133.54L168.88 129.09C168.88 129.09 172.91 138.29 163.6 158.78L163.59 158.79Z" fill="#35509F"></path><path d="M30.57 218.93C30.57 221.22 30.23 223.3 29.54 225.18C28.85 227.06 27.87 228.66 26.59 229.99C25.31 231.32 23.75 232.35 21.92 233.08C20.09 233.81 18.03 234.18 15.74 234.18H9.97001V251.63H0.0100098V203.82H15.19C17.43 203.82 19.51 204.12 21.41 204.71C23.31 205.31 24.94 206.22 26.29 207.46C27.64 208.7 28.69 210.27 29.45 212.17C30.21 214.07 30.58 216.33 30.58 218.94L30.57 218.93ZM20.82 218.79C20.82 216.73 20.32 215.25 19.31 214.36C18.3 213.47 16.93 213.02 15.19 213.02H9.97001V224.9H15.26C16.72 224.9 18.02 224.44 19.14 223.53C20.26 222.61 20.82 221.03 20.82 218.79Z" fill="white"></path><path d="M63.4 236.58C63.4 238.96 63.02 241.1 62.27 243C61.51 244.9 60.46 246.53 59.11 247.88C57.76 249.23 56.16 250.26 54.3 250.97C52.45 251.68 50.4 252.03 48.15 252.03C45.4 252.03 43.05 251.6 41.11 250.72C39.16 249.85 37.57 248.67 36.34 247.18C35.1 245.69 34.2 243.96 33.63 241.99C33.06 240.02 32.77 237.96 32.77 235.81V218.77C32.77 216.98 33.04 215.19 33.59 213.38C34.14 211.57 35.03 209.93 36.27 208.47C37.51 207 39.1 205.8 41.04 204.86C42.99 203.92 45.36 203.45 48.15 203.45C50.76 203.45 53.03 203.9 54.95 204.79C56.87 205.68 58.45 206.85 59.69 208.29C60.93 209.73 61.85 211.37 62.47 213.2C63.09 215.03 63.4 216.89 63.4 218.76V236.55V236.58ZM53.37 218.38C53.37 217.92 53.29 217.4 53.13 216.8C52.97 216.21 52.68 215.63 52.27 215.08C51.86 214.53 51.32 214.06 50.66 213.67C50 213.28 49.16 213.09 48.15 213.09C47.14 213.09 46.3 213.26 45.61 213.61C44.92 213.95 44.36 214.39 43.93 214.92C43.49 215.45 43.17 216.02 42.97 216.64C42.76 217.26 42.66 217.84 42.66 218.39V236.11C42.66 237.94 43.08 239.45 43.93 240.64C44.78 241.83 46.19 242.43 48.15 242.43C49.57 242.43 50.8 241.97 51.83 241.06C52.86 240.14 53.38 238.89 53.38 237.28V218.39L53.37 218.38Z" fill="white"></path><path d="M93.0801 251.63L84.2201 235.69L79.0001 225.59L78.7901 225.66V251.63H68.8301V203.82H77.6201L85.4501 218.11L91.7001 229.65L91.9101 229.58V203.82H101.8V251.63H93.0801Z" fill="white"></path><path d="M124.54 212.88V251.63H114.65V212.88H104.41V203.81H134.77V212.88H124.53H124.54Z" fill="white"></path><path d="M156.35 241.87H145.02C144.61 243.47 144.18 245.1 143.75 246.75C143.31 248.4 142.87 250.02 142.41 251.63H131.9L145.71 203.82H155.6L169.41 251.63H158.69L156.35 241.88V241.87ZM148.59 226.14L147.22 233.01H154.09L152.78 226.21L150.86 216.66H150.52L148.6 226.14H148.59Z" fill="white"></path><path d="M192.86 251.63L186.45 232.74H182.24V251.63H172.28V203.82H188.12C190.14 203.82 192.05 204.09 193.87 204.64C195.68 205.19 197.27 206.04 198.62 207.18C199.97 208.33 201.04 209.78 201.82 211.54C202.6 213.3 202.99 215.42 202.99 217.89C202.99 220.96 202.39 223.59 201.2 225.79C200.01 227.99 198.26 229.71 195.96 230.94L203.68 251.62H192.86V251.63ZM193.37 217.97C193.37 216.14 192.86 214.83 191.83 214.05C190.8 213.27 189.48 212.88 187.88 212.88H182.25V223.67H187.61C189.21 223.67 190.57 223.25 191.7 222.4C192.82 221.55 193.38 220.08 193.38 217.97H193.37Z" fill="white"></path><path d="M208.28 251.63V203.82H236.1V213.03H218.24V222.92H233.63V232.06H218.24V242.23H236.1V251.64H208.28V251.63Z" fill="white"></path><path d="M260.7 241.87H249.37C248.96 243.47 248.53 245.1 248.1 246.75C247.66 248.4 247.22 250.02 246.76 251.63H236.25L250.06 203.82H259.95L273.76 251.63H263.04L260.7 241.88V241.87ZM252.94 226.14L251.57 233.01H258.44L257.13 226.21L255.21 216.66H254.87L252.95 226.14H252.94Z" fill="white"></path><path d="M82.4299 285.21C82.6099 284.59 82.8299 283.83 83.0899 282.92C83.3499 282.01 83.6499 281.01 83.9699 279.92C84.2899 278.83 84.6199 277.71 84.9599 276.55C85.2999 275.39 85.6299 274.27 85.9499 273.18C86.2699 272.09 86.5699 271.09 86.8499 270.16C87.1299 269.24 87.3599 268.45 87.5299 267.8H90.3899L82.3299 294.14C81.4499 297.02 79.7199 298.46 77.1299 298.46H76.1199V296.08H76.9999C77.8499 296.08 78.4999 295.79 78.9599 295.22C79.4199 294.65 79.7899 293.83 80.0799 292.78L81.1399 289.26C79.9399 285.68 78.7699 282.11 77.6399 278.56C76.5099 275.01 75.3399 271.42 74.1399 267.81H77.0899C77.5599 269.37 78.0299 270.9 78.4999 272.41C78.9699 273.92 79.4399 275.44 79.9099 276.97C80.0299 277.41 80.1999 278.01 80.4199 278.75C80.6399 279.5 80.8799 280.28 81.1199 281.08C81.3699 281.89 81.5999 282.67 81.7999 283.41C82.0099 284.16 82.1799 284.75 82.3299 285.19H82.4199L82.4299 285.21Z" fill="white"></path><path d="M103.97 287.67C103.38 288.46 102.59 289.01 101.59 289.32C100.59 289.63 99.52 289.78 98.37 289.78C96.28 289.78 94.71 289.19 93.63 288C92.56 286.81 92.02 285.32 92.02 283.53C92.02 282.62 92.16 281.75 92.44 280.93C92.72 280.11 93.15 279.4 93.74 278.82C94.33 278.24 95.08 277.76 95.99 277.41C96.9 277.06 97.99 276.88 99.25 276.88H104.1V273.87C104.1 272.69 103.74 271.76 103.02 271.08C102.3 270.4 101.21 270.06 99.74 270.06C98.74 270.06 97.83 270.23 97.01 270.57C96.19 270.91 95.56 271.46 95.12 272.22C94.8 272.04 94.44 271.82 94.06 271.56C93.68 271.3 93.33 271.06 93 270.85C93.62 269.8 94.5 268.98 95.64 268.39C96.79 267.8 98.15 267.5 99.74 267.5C100.74 267.5 101.68 267.6 102.56 267.81C103.44 268.02 104.2 268.37 104.84 268.87C105.48 269.37 105.98 270.03 106.34 270.85C106.7 271.67 106.88 272.7 106.88 273.93V289.52H104.1V287.71L103.97 287.67ZM104.1 279.3H99.17C97.85 279.3 96.76 279.62 95.91 280.27C95.06 280.92 94.63 281.94 94.63 283.35C94.63 284.5 95.01 285.43 95.78 286.15C96.54 286.87 97.67 287.23 99.17 287.23C99.82 287.23 100.43 287.16 101.02 287.01C101.61 286.86 102.13 286.64 102.58 286.33C103.04 286.02 103.4 285.61 103.68 285.1C103.96 284.59 104.1 283.95 104.1 283.18V279.3Z" fill="white"></path><path d="M122.47 284.68C122.85 284.92 123.23 285.13 123.62 285.32C124 285.51 124.4 285.71 124.81 285.91C124.28 287.14 123.46 288.1 122.34 288.77C121.22 289.45 119.89 289.78 118.33 289.78C116.68 289.78 115.35 289.49 114.32 288.92C113.29 288.35 112.48 287.55 111.9 286.54C111.31 285.53 110.91 284.32 110.69 282.91C110.47 281.5 110.36 279.97 110.36 278.33C110.36 276.8 110.5 275.38 110.78 274.06C111.06 272.74 111.51 271.59 112.15 270.62C112.78 269.65 113.61 268.89 114.64 268.33C115.67 267.77 116.93 267.49 118.43 267.49C120.02 267.49 121.34 267.83 122.42 268.51C123.49 269.19 124.31 270.14 124.86 271.37L122.53 272.74C122.21 271.92 121.69 271.26 120.99 270.78C120.28 270.3 119.45 270.05 118.48 270.05C117.33 270.05 116.41 270.28 115.7 270.74C115 271.2 114.46 271.81 114.09 272.57C113.72 273.34 113.47 274.22 113.34 275.22C113.21 276.22 113.14 277.27 113.14 278.36C113.14 279.45 113.2 280.52 113.32 281.58C113.44 282.64 113.69 283.59 114.07 284.43C114.45 285.27 114.99 285.95 115.68 286.46C116.37 286.98 117.27 287.23 118.39 287.23C119.39 287.23 120.24 286.99 120.95 286.5C121.65 286.02 122.17 285.41 122.49 284.67L122.47 284.68Z" fill="white"></path><path d="M139.83 289.53V275.08C139.83 273.58 139.47 272.4 138.76 271.53C138.05 270.66 136.94 270.23 135.45 270.23C134.05 270.23 132.89 270.7 131.99 271.64C131.08 272.58 130.63 273.81 130.63 275.34V289.52H127.85V257.54H130.67V270.36H130.76C131.37 269.36 132.17 268.64 133.15 268.18C134.13 267.73 135.18 267.5 136.29 267.5C138.22 267.5 139.76 268.09 140.9 269.28C142.04 270.47 142.61 272.09 142.61 274.15V289.52H139.83V289.53Z" fill="white"></path><path d="M152.91 289.53C151.32 289.53 150.14 289.09 149.36 288.21C148.58 287.33 148.19 286.14 148.19 284.64V270.06H145.59V267.77H148.19V262.04H150.97V267.77H154.32V270.06H150.97V283.94C150.97 284.91 151.14 285.67 151.48 286.23C151.82 286.79 152.5 287.07 153.53 287.07H154.72V289.54H152.91V289.53Z" fill="white"></path><path d="M158.28 262.17V259.26H161.14V262.17H158.28ZM158.32 289.52V267.76H161.1V289.52H158.32Z" fill="white"></path><path d="M177.97 289.53V275.08C177.97 273.58 177.58 272.41 176.8 271.56C176.02 270.71 174.88 270.28 173.39 270.28C171.98 270.28 170.85 270.75 170 271.69C169.15 272.63 168.72 273.85 168.72 275.35V289.53H165.94V267.77H168.72V270.46H168.85C169.47 269.46 170.26 268.72 171.23 268.24C172.2 267.76 173.24 267.51 174.36 267.51C176.3 267.51 177.85 268.11 179.01 269.32C180.17 270.52 180.75 272.14 180.75 274.17V289.54H177.97V289.53Z" fill="white"></path><path d="M199.6 290.01C199.6 292.68 198.96 294.8 197.68 296.35C196.4 297.91 194.44 298.68 191.8 298.68C190.42 298.68 189.19 298.36 188.1 297.71C187.01 297.06 186.19 296.12 185.63 294.89L187.92 293.57C188.24 294.25 188.74 294.84 189.42 295.35C190.09 295.86 190.92 296.12 191.89 296.12C193.62 296.12 194.88 295.61 195.66 294.58C196.44 293.55 196.83 292.17 196.83 290.44V286.7H196.74C196.15 287.64 195.42 288.38 194.54 288.92C193.66 289.46 192.6 289.73 191.37 289.73C189.84 289.73 188.63 289.42 187.74 288.81C186.84 288.19 186.17 287.38 185.71 286.37C185.25 285.36 184.96 284.2 184.83 282.89C184.7 281.58 184.63 280.24 184.63 278.86C184.63 277.48 184.71 276.06 184.87 274.7C185.03 273.33 185.35 272.12 185.84 271.04C186.32 269.97 187.01 269.11 187.89 268.46C188.77 267.81 189.94 267.49 191.41 267.49C192.47 267.49 193.45 267.7 194.36 268.13C195.27 268.56 196.06 269.28 196.74 270.31L196.83 270.27V267.8H199.61V290L199.6 290.01ZM192.05 287.1C193.08 287.1 193.91 286.85 194.53 286.35C195.15 285.85 195.63 285.21 195.97 284.43C196.31 283.65 196.54 282.78 196.66 281.83C196.78 280.87 196.84 279.92 196.84 278.98C196.84 278.04 196.8 277.09 196.71 276.04C196.62 275 196.42 274.03 196.11 273.15C195.8 272.27 195.33 271.53 194.72 270.94C194.1 270.35 193.24 270.06 192.15 270.06C191.06 270.06 190.25 270.29 189.63 270.75C189.01 271.21 188.53 271.82 188.19 272.6C187.85 273.38 187.64 274.29 187.55 275.32C187.46 276.35 187.42 277.45 187.42 278.63C187.42 279.81 187.46 280.91 187.55 281.94C187.64 282.97 187.84 283.87 188.17 284.63C188.49 285.4 188.96 286 189.56 286.44C190.17 286.88 191 287.1 192.06 287.1H192.05Z" fill="white"></path><defs><linearGradient id="paint0_linear_727_85" x1="144.42" y1="32.8" x2="144.42" y2="147.2" gradientUnits="userSpaceOnUse"><stop stop-color="#AADCF1"></stop><stop offset="0.19" stop-color="#96D4EB"></stop><stop offset="0.72" stop-color="#57C3EC"></stop><stop offset="1" stop-color="#05B3E3"></stop></linearGradient></defs></svg> 